<svg xmlns="http://www.w3.org/2000/svg" width="920" height="470" viewBox="0 0 920 470" role="img"><text x="556" y="34" font-family="-apple-system, BlinkMacSystemFont, 'Segoe UI', Helvetica, Arial, sans-serif" font-size="13" fill="#9198a1" font-weight="600" text-anchor="middle" font-style="normal">final decision: A or B</text><line x1="236" y1="52" x2="876" y2="52" stroke="#383835" stroke-width="1.5"/><rect x="24" y="200" width="148" height="118" rx="10" fill="#161b22" stroke="rgba(240,246,252,0.14)" stroke-width="1"/><text x="40" y="226" font-family="-apple-system, BlinkMacSystemFont, 'Segoe UI', Helvetica, Arial, sans-serif" font-size="13.5" fill="#e6edf3" font-weight="700" text-anchor="start" font-style="normal">Input</text><text x="40" y="250" font-family="-apple-system, BlinkMacSystemFont, 'Segoe UI', Helvetica, Arial, sans-serif" font-size="12" fill="#9198a1" font-weight="normal" text-anchor="start" font-style="normal">story triplet</text><text x="40" y="272" font-family="-apple-system, BlinkMacSystemFont, 'Segoe UI', Helvetica, Arial, sans-serif" font-size="12" fill="#767d86" font-weight="normal" text-anchor="start" font-style="normal">anchor</text><text x="40" y="290" font-family="-apple-system, BlinkMacSystemFont, 'Segoe UI', Helvetica, Arial, sans-serif" font-size="12" fill="#767d86" font-weight="normal" text-anchor="start" font-style="normal">story A · story B</text><rect x="216" y="200" width="208" height="118" rx="10" fill="#161b22" stroke="rgba(240,246,252,0.14)" stroke-width="1"/><path d="M 216 210 v 98 a 10 10 0 0 1 0 0" stroke="none"/><rect x="216" y="200" width="4" height="118" rx="2" fill="#3987e5"/><text x="232" y="226" font-family="-apple-system, BlinkMacSystemFont, 'Segoe UI', Helvetica, Arial, sans-serif" font-size="13.5" fill="#e6edf3" font-weight="700" text-anchor="start" font-style="normal">1 · Self-consistency vote</text><text x="232" y="248" font-family="-apple-system, BlinkMacSystemFont, 'Segoe UI', Helvetica, Arial, sans-serif" font-size="12" fill="#9198a1" font-weight="normal" text-anchor="start" font-style="normal">Gemini 2.5 Flash · 8 samples</text><text x="232" y="266" font-family="ui-monospace, SFMono-Regular, 'SF Mono', Menlo, Consolas, monospace" font-size="11" fill="#767d86" font-weight="normal" text-anchor="start" font-style="normal">candidateCount = 8 · T = 1.0</text><circle cx="238" cy="292" r="6" fill="#3987e5" stroke="#0d1117" stroke-width="2"/><circle cx="260" cy="292" r="6" fill="#3987e5" stroke="#0d1117" stroke-width="2"/><circle cx="282" cy="292" r="6" fill="#3987e5" stroke="#0d1117" stroke-width="2"/><circle cx="304" cy="292" r="6" fill="#3987e5" stroke="#0d1117" stroke-width="2"/><circle cx="326" cy="292" r="6" fill="#3987e5" stroke="#0d1117" stroke-width="2"/><circle cx="348" cy="292" r="6" fill="#3987e5" stroke="#0d1117" stroke-width="2"/><circle cx="370" cy="292" r="6" fill="#3987e5" stroke="#0d1117" stroke-width="2"/><circle cx="392" cy="292" r="5.5" fill="none" stroke="#767d86" stroke-width="1.6"/><rect x="486" y="200" width="208" height="118" rx="10" fill="#161b22" stroke="rgba(240,246,252,0.14)" stroke-width="1"/><path d="M 486 210 v 98 a 10 10 0 0 1 0 0" stroke="none"/><rect x="486" y="200" width="4" height="118" rx="2" fill="#c98500"/><text x="502" y="226" font-family="-apple-system, BlinkMacSystemFont, 'Segoe UI', Helvetica, Arial, sans-serif" font-size="13.5" fill="#e6edf3" font-weight="700" text-anchor="start" font-style="normal">2 · Escalation</text><text x="502" y="248" font-family="-apple-system, BlinkMacSystemFont, 'Segoe UI', Helvetica, Arial, sans-serif" font-size="12" fill="#9198a1" font-weight="normal" text-anchor="start" font-style="normal">+3 calls × 8 samples</text><text x="502" y="268" font-family="-apple-system, BlinkMacSystemFont, 'Segoe UI', Helvetica, Arial, sans-serif" font-size="12" fill="#9198a1" font-weight="normal" text-anchor="start" font-style="normal">32 votes total → majority</text><text x="502" y="292" font-family="-apple-system, BlinkMacSystemFont, 'Segoe UI', Helvetica, Arial, sans-serif" font-size="11" fill="#767d86" font-weight="normal" text-anchor="start" font-style="italic">only for split votes</text><rect x="756" y="200" width="148" height="118" rx="10" fill="#161b22" stroke="rgba(240,246,252,0.14)" stroke-width="1"/><path d="M 756 210 v 98 a 10 10 0 0 1 0 0" stroke="none"/><rect x="756" y="200" width="4" height="118" rx="2" fill="#9085e9"/><text x="772" y="226" font-family="-apple-system, BlinkMacSystemFont, 'Segoe UI', Helvetica, Arial, sans-serif" font-size="13.5" fill="#e6edf3" font-weight="700" text-anchor="start" font-style="normal">3 · Symbolic</text><text x="772" y="248" font-family="-apple-system, BlinkMacSystemFont, 'Segoe UI', Helvetica, Arial, sans-serif" font-size="12" fill="#9198a1" font-weight="normal" text-anchor="start" font-style="normal">5 narrative signals,</text><text x="772" y="266" font-family="-apple-system, BlinkMacSystemFont, 'Segoe UI', Helvetica, Arial, sans-serif" font-size="12" fill="#9198a1" font-weight="normal" text-anchor="start" font-style="normal">theory-inspired,</text><text x="772" y="284" font-family="-apple-system, BlinkMacSystemFont, 'Segoe UI', Helvetica, Arial, sans-serif" font-size="12" fill="#9198a1" font-weight="normal" text-anchor="start" font-style="normal">weighted ensemble</text><line x1="172" y1="259.0" x2="209" y2="259.0" stroke="#383835" stroke-width="1.5"/><path d="M 216 259.0 L 208 254.8 L 208 263.2 Z" fill="#383835"/><line x1="424" y1="259.0" x2="479" y2="259.0" stroke="#383835" stroke-width="1.5"/><path d="M 486 259.0 L 478 254.8 L 478 263.2 Z" fill="#383835"/><text x="455.0" y="247.0" font-family="-apple-system, BlinkMacSystemFont, 'Segoe UI', Helvetica, Arial, sans-serif" font-size="11" fill="#9198a1" font-weight="normal" text-anchor="middle" font-style="normal">split vote</text><line x1="694" y1="259.0" x2="749" y2="259.0" stroke="#383835" stroke-width="1.5"/><path d="M 756 259.0 L 748 254.8 L 748 263.2 Z" fill="#383835"/><text x="725.0" y="247.0" font-family="-apple-system, BlinkMacSystemFont, 'Segoe UI', Helvetica, Arial, sans-serif" font-size="11" fill="#9198a1" font-weight="normal" text-anchor="middle" font-style="normal">perfect tie</text><text x="725.0" y="281.0" font-family="-apple-system, BlinkMacSystemFont, 'Segoe UI', Helvetica, Arial, sans-serif" font-size="10.5" fill="#767d86" font-weight="normal" text-anchor="middle" font-style="normal">16–16</text><rect x="212" y="92" width="216" height="58" rx="9" fill="rgba(57,135,229,0.13)" stroke="#3987e5" stroke-width="1.2"/><circle cx="229" cy="112" r="4.5" fill="#3987e5"/><text x="240" y="116" font-family="-apple-system, BlinkMacSystemFont, 'Segoe UI', Helvetica, Arial, sans-serif" font-size="12.5" fill="#e6edf3" font-weight="600" text-anchor="start" font-style="normal">supermajority ≥ 7/8 → decide</text><text x="240" y="136" font-family="-apple-system, BlinkMacSystemFont, 'Segoe UI', Helvetica, Arial, sans-serif" font-size="11.5" fill="#9198a1" font-weight="normal" text-anchor="start" font-style="normal">74% of cases · 85% dev accuracy</text><line x1="320.0" y1="92" x2="320.0" y2="61" stroke="#383835" stroke-width="1.5"/><path d="M 320.0 54 L 315.8 62 L 324.2 62 Z" fill="#383835"/><line x1="320.0" y1="200" x2="320.0" y2="158" stroke="#383835" stroke-width="1.5"/><path d="M 320.0 151 L 315.8 159 L 324.2 159 Z" fill="#383835"/><rect x="482" y="92" width="216" height="58" rx="9" fill="rgba(201,133,0,0.15)" stroke="#c98500" stroke-width="1.2"/><circle cx="499" cy="112" r="4.5" fill="#c98500"/><text x="510" y="116" font-family="-apple-system, BlinkMacSystemFont, 'Segoe UI', Helvetica, Arial, sans-serif" font-size="12.5" fill="#e6edf3" font-weight="600" text-anchor="start" font-style="normal">clear majority → decide</text><text x="510" y="136" font-family="-apple-system, BlinkMacSystemFont, 'Segoe UI', Helvetica, Arial, sans-serif" font-size="11.5" fill="#9198a1" font-weight="normal" text-anchor="start" font-style="normal">21% of cases · 67% dev accuracy</text><line x1="590.0" y1="92" x2="590.0" y2="61" stroke="#383835" stroke-width="1.5"/><path d="M 590.0 54 L 585.8 62 L 594.2 62 Z" fill="#383835"/><line x1="590.0" y1="200" x2="590.0" y2="158" stroke="#383835" stroke-width="1.5"/><path d="M 590.0 151 L 585.8 159 L 594.2 159 Z" fill="#383835"/><rect x="704" y="92" width="196" height="58" rx="9" fill="rgba(144,133,233,0.13)" stroke="#9085e9" stroke-width="1.2"/><circle cx="721" cy="112" r="4.5" fill="#9085e9"/><text x="732" y="116" font-family="-apple-system, BlinkMacSystemFont, 'Segoe UI', Helvetica, Arial, sans-serif" font-size="12.5" fill="#e6edf3" font-weight="600" text-anchor="start" font-style="normal">tiebreak → decide</text><text x="732" y="136" font-family="-apple-system, BlinkMacSystemFont, 'Segoe UI', Helvetica, Arial, sans-serif" font-size="11.5" fill="#9198a1" font-weight="normal" text-anchor="start" font-style="normal">5% of cases · 61% accuracy</text><line x1="802.0" y1="92" x2="802.0" y2="61" stroke="#383835" stroke-width="1.5"/><path d="M 802.0 54 L 797.8 62 L 806.2 62 Z" fill="#383835"/><line x1="802.0" y1="200" x2="802.0" y2="158" stroke="#383835" stroke-width="1.5"/><path d="M 802.0 151 L 797.8 159 L 806.2 159 Z" fill="#383835"/><text x="24" y="413" font-family="-apple-system, BlinkMacSystemFont, 'Segoe UI', Helvetica, Arial, sans-serif" font-size="12" fill="#9198a1" font-weight="600" text-anchor="start" font-style="normal">routing of 100</text><text x="24" y="429" font-family="-apple-system, BlinkMacSystemFont, 'Segoe UI', Helvetica, Arial, sans-serif" font-size="12" fill="#9198a1" font-weight="600" text-anchor="start" font-style="normal">dev cases</text><rect x="216" y="396" width="507.12" height="26" rx="4" fill="#3987e5"/><rect x="727.12" y="396" width="140.48" height="26" rx="4" fill="#c98500"/><rect x="871.6" y="396" width="32.4" height="26" rx="4" fill="#9085e9"/><text x="470.56" y="413.5" font-family="-apple-system, BlinkMacSystemFont, 'Segoe UI', Helvetica, Arial, sans-serif" font-size="12" fill="#ffffff" font-weight="600" text-anchor="middle" font-style="normal">74% supermajority</text><text x="797.36" y="413.5" font-family="-apple-system, BlinkMacSystemFont, 'Segoe UI', Helvetica, Arial, sans-serif" font-size="12" fill="#1f2328" font-weight="600" text-anchor="middle" font-style="normal">21%</text><text x="797.36" y="438" font-family="-apple-system, BlinkMacSystemFont, 'Segoe UI', Helvetica, Arial, sans-serif" font-size="11" fill="#9198a1" font-weight="normal" text-anchor="middle" font-style="normal">escalated</text><text x="904" y="438" font-family="-apple-system, BlinkMacSystemFont, 'Segoe UI', Helvetica, Arial, sans-serif" font-size="11" fill="#9198a1" font-weight="normal" text-anchor="end" font-style="normal">5% symbolic</text></svg>