<svg xmlns="http://www.w3.org/2000/svg" width="920" height="300" viewBox="0 0 920 300" role="img"><text x="24" y="28" font-family="-apple-system, BlinkMacSystemFont, 'Segoe UI', Helvetica, Arial, sans-serif" font-size="14.5" fill="#e6edf3" font-weight="700" text-anchor="start" font-style="normal">Multi-scale narrative ensemble · optimized signal weights w*</text><text x="24" y="48" font-family="-apple-system, BlinkMacSystemFont, 'Segoe UI', Helvetica, Arial, sans-serif" font-size="11.5" fill="#767d86" font-weight="normal" text-anchor="start" font-style="normal">ŷ = argmax over X of Σ wᵢ · simᵢ(anchor, X) · weights fit by differential evolution on 1,900 synthetic triplets</text><line x1="264.0" y1="66" x2="264.0" y2="266" stroke="#21262d" stroke-width="1"/><text x="264.0" y="286" font-family="-apple-system, BlinkMacSystemFont, 'Segoe UI', Helvetica, Arial, sans-serif" font-size="10.5" fill="#767d86" font-weight="normal" text-anchor="middle" font-style="normal">0.0</text><line x1="376.0" y1="66" x2="376.0" y2="266" stroke="#21262d" stroke-width="1"/><text x="376.0" y="286" font-family="-apple-system, BlinkMacSystemFont, 'Segoe UI', Helvetica, Arial, sans-serif" font-size="10.5" fill="#767d86" font-weight="normal" text-anchor="middle" font-style="normal">0.1</text><line x1="488.0" y1="66" x2="488.0" y2="266" stroke="#21262d" stroke-width="1"/><text x="488.0" y="286" font-family="-apple-system, BlinkMacSystemFont, 'Segoe UI', Helvetica, Arial, sans-serif" font-size="10.5" fill="#767d86" font-weight="normal" text-anchor="middle" font-style="normal">0.2</text><line x1="600.0" y1="66" x2="600.0" y2="266" stroke="#21262d" stroke-width="1"/><text x="600.0" y="286" font-family="-apple-system, BlinkMacSystemFont, 'Segoe UI', Helvetica, Arial, sans-serif" font-size="10.5" fill="#767d86" font-weight="normal" text-anchor="middle" font-style="normal">0.3</text><line x1="712.0" y1="66" x2="712.0" y2="266" stroke="#21262d" stroke-width="1"/><text x="712.0" y="286" font-family="-apple-system, BlinkMacSystemFont, 'Segoe UI', Helvetica, Arial, sans-serif" font-size="10.5" fill="#767d86" font-weight="normal" text-anchor="middle" font-style="normal">0.4</text><line x1="824.0" y1="66" x2="824.0" y2="266" stroke="#21262d" stroke-width="1"/><text x="824.0" y="286" font-family="-apple-system, BlinkMacSystemFont, 'Segoe UI', Helvetica, Arial, sans-serif" font-size="10.5" fill="#767d86" font-weight="normal" text-anchor="middle" font-style="normal">0.5</text><text x="254" y="80" font-family="-apple-system, BlinkMacSystemFont, 'Segoe UI', Helvetica, Arial, sans-serif" font-size="12" fill="#e6edf3" font-weight="600" text-anchor="end" font-style="normal">Lexical</text><text x="254" y="95" font-family="-apple-system, BlinkMacSystemFont, 'Segoe UI', Helvetica, Arial, sans-serif" font-size="10.5" fill="#767d86" font-weight="normal" text-anchor="end" font-style="normal">TF-IDF cosine</text><path d="M 264 72 h 544.8 a 4 4 0 0 1 4 4 v 10 a 4 4 0 0 1 -4 4 h -544.8 Z" fill="#3987e5"/><text x="820.8" y="85.0" font-family="-apple-system, BlinkMacSystemFont, 'Segoe UI', Helvetica, Arial, sans-serif" font-size="12" fill="#e6edf3" font-weight="600" text-anchor="start" font-style="normal">0.49</text><text x="254" y="122" font-family="-apple-system, BlinkMacSystemFont, 'Segoe UI', Helvetica, Arial, sans-serif" font-size="12" fill="#e6edf3" font-weight="600" text-anchor="end" font-style="normal">Story grammar</text><text x="254" y="137" font-family="-apple-system, BlinkMacSystemFont, 'Segoe UI', Helvetica, Arial, sans-serif" font-size="10.5" fill="#767d86" font-weight="normal" text-anchor="end" font-style="normal">5 narrative phases · embeddings</text><path d="M 264 114 h 444.0 a 4 4 0 0 1 4 4 v 10 a 4 4 0 0 1 -4 4 h -444.0 Z" fill="#3987e5"/><text x="720.0" y="127.0" font-family="-apple-system, BlinkMacSystemFont, 'Segoe UI', Helvetica, Arial, sans-serif" font-size="12" fill="#e6edf3" font-weight="600" text-anchor="start" font-style="normal">0.40</text><text x="254" y="164" font-family="-apple-system, BlinkMacSystemFont, 'Segoe UI', Helvetica, Arial, sans-serif" font-size="12" fill="#e6edf3" font-weight="600" text-anchor="end" font-style="normal">Semantic</text><text x="254" y="179" font-family="-apple-system, BlinkMacSystemFont, 'Segoe UI', Helvetica, Arial, sans-serif" font-size="10.5" fill="#767d86" font-weight="normal" text-anchor="end" font-style="normal">all-MiniLM-L6-v2</text><path d="M 264 156 h 85.60000000000001 a 4 4 0 0 1 4 4 v 10 a 4 4 0 0 1 -4 4 h -85.60000000000001 Z" fill="#3987e5"/><text x="361.6" y="169.0" font-family="-apple-system, BlinkMacSystemFont, 'Segoe UI', Helvetica, Arial, sans-serif" font-size="12" fill="#e6edf3" font-weight="600" text-anchor="start" font-style="normal">0.08</text><text x="254" y="206" font-family="-apple-system, BlinkMacSystemFont, 'Segoe UI', Helvetica, Arial, sans-serif" font-size="12" fill="#e6edf3" font-weight="600" text-anchor="end" font-style="normal">Tension curve</text><text x="254" y="221" font-family="-apple-system, BlinkMacSystemFont, 'Segoe UI', Helvetica, Arial, sans-serif" font-size="10.5" fill="#767d86" font-weight="normal" text-anchor="end" font-style="normal">sentiment-arc correlation</text><path d="M 264 198 h 18.400000000000002 a 4 4 0 0 1 4 4 v 10 a 4 4 0 0 1 -4 4 h -18.400000000000002 Z" fill="#3987e5"/><text x="294.4" y="211.0" font-family="-apple-system, BlinkMacSystemFont, 'Segoe UI', Helvetica, Arial, sans-serif" font-size="12" fill="#e6edf3" font-weight="600" text-anchor="start" font-style="normal">0.02</text><text x="254" y="248" font-family="-apple-system, BlinkMacSystemFont, 'Segoe UI', Helvetica, Arial, sans-serif" font-size="12" fill="#e6edf3" font-weight="600" text-anchor="end" font-style="normal">Event chain</text><text x="254" y="263" font-family="-apple-system, BlinkMacSystemFont, 'Segoe UI', Helvetica, Arial, sans-serif" font-size="10.5" fill="#767d86" font-weight="normal" text-anchor="end" font-style="normal">LCS over action verbs</text><path d="M 264 240 h 7.200000000000001 a 4 4 0 0 1 4 4 v 10 a 4 4 0 0 1 -4 4 h -7.200000000000001 Z" fill="#3987e5"/><text x="283.2" y="253.0" font-family="-apple-system, BlinkMacSystemFont, 'Segoe UI', Helvetica, Arial, sans-serif" font-size="12" fill="#e6edf3" font-weight="600" text-anchor="start" font-style="normal">0.01</text><line x1="264" y1="66" x2="264" y2="266" stroke="#383835" stroke-width="1.2"/></svg>