<svg xmlns="http://www.w3.org/2000/svg" width="920" height="320" viewBox="0 0 920 320" role="img"><text x="24" y="28" font-family="-apple-system, BlinkMacSystemFont, 'Segoe UI', Helvetica, Arial, sans-serif" font-size="14.5" fill="#1f2328" font-weight="700" text-anchor="start" font-style="normal">Development accuracy by system</text><text x="24" y="48" font-family="-apple-system, BlinkMacSystemFont, 'Segoe UI', Helvetica, Arial, sans-serif" font-size="11.5" fill="#8b949e" font-weight="normal" text-anchor="start" font-style="normal">Track A dev · baselines n = 200, cascade n = 100</text><line x1="194.0" y1="64" x2="194.0" y2="276" stroke="#e1e0d9" stroke-width="1"/><text x="194.0" y="296" font-family="-apple-system, BlinkMacSystemFont, 'Segoe UI', Helvetica, Arial, sans-serif" font-size="10.5" fill="#8b949e" font-weight="normal" text-anchor="middle" font-style="normal">0</text><line x1="256.5" y1="64" x2="256.5" y2="276" stroke="#e1e0d9" stroke-width="1"/><text x="256.5" y="296" font-family="-apple-system, BlinkMacSystemFont, 'Segoe UI', Helvetica, Arial, sans-serif" font-size="10.5" fill="#8b949e" font-weight="normal" text-anchor="middle" font-style="normal">25</text><line x1="319.0" y1="64" x2="319.0" y2="276" stroke="#e1e0d9" stroke-width="1"/><text x="319.0" y="296" font-family="-apple-system, BlinkMacSystemFont, 'Segoe UI', Helvetica, Arial, sans-serif" font-size="10.5" fill="#8b949e" font-weight="normal" text-anchor="middle" font-style="normal">50</text><line x1="381.5" y1="64" x2="381.5" y2="276" stroke="#e1e0d9" stroke-width="1"/><text x="381.5" y="296" font-family="-apple-system, BlinkMacSystemFont, 'Segoe UI', Helvetica, Arial, sans-serif" font-size="10.5" fill="#8b949e" font-weight="normal" text-anchor="middle" font-style="normal">75</text><line x1="444.0" y1="64" x2="444.0" y2="276" stroke="#e1e0d9" stroke-width="1"/><text x="444.0" y="296" font-family="-apple-system, BlinkMacSystemFont, 'Segoe UI', Helvetica, Arial, sans-serif" font-size="10.5" fill="#8b949e" font-weight="normal" text-anchor="middle" font-style="normal">100</text><text x="184" y="80" font-family="-apple-system, BlinkMacSystemFont, 'Segoe UI', Helvetica, Arial, sans-serif" font-size="12" fill="#1f2328" font-weight="600" text-anchor="end" font-style="normal">Single vote</text><text x="184" y="96" font-family="-apple-system, BlinkMacSystemFont, 'Segoe UI', Helvetica, Arial, sans-serif" font-size="10.5" fill="#8b949e" font-weight="normal" text-anchor="end" font-style="normal">1.0 calls/case</text><path d="M 194 70 h 166.0 a 4 4 0 0 1 4 4 v 14 a 4 4 0 0 1 -4 4 h -166.0 Z" fill="#86b6ef"/><text x="372.0" y="85.5" font-family="-apple-system, BlinkMacSystemFont, 'Segoe UI', Helvetica, Arial, sans-serif" font-size="12" fill="#1f2328" font-weight="600" text-anchor="start" font-style="normal">68.0%</text><text x="184" y="136" font-family="-apple-system, BlinkMacSystemFont, 'Segoe UI', Helvetica, Arial, sans-serif" font-size="12" fill="#1f2328" font-weight="600" text-anchor="end" font-style="normal">Self-consistency (k = 8)</text><text x="184" y="152" font-family="-apple-system, BlinkMacSystemFont, 'Segoe UI', Helvetica, Arial, sans-serif" font-size="10.5" fill="#8b949e" font-weight="normal" text-anchor="end" font-style="normal">1.0 calls/case</text><path d="M 194 126 h 187.25 a 4 4 0 0 1 4 4 v 14 a 4 4 0 0 1 -4 4 h -187.25 Z" fill="#86b6ef"/><text x="393.25" y="141.5" font-family="-apple-system, BlinkMacSystemFont, 'Segoe UI', Helvetica, Arial, sans-serif" font-size="12" fill="#1f2328" font-weight="600" text-anchor="start" font-style="normal">76.5%</text><text x="184" y="192" font-family="-apple-system, BlinkMacSystemFont, 'Segoe UI', Helvetica, Arial, sans-serif" font-size="12" fill="#1f2328" font-weight="600" text-anchor="end" font-style="normal">3-call majority (24 votes)</text><text x="184" y="208" font-family="-apple-system, BlinkMacSystemFont, 'Segoe UI', Helvetica, Arial, sans-serif" font-size="10.5" fill="#8b949e" font-weight="normal" text-anchor="end" font-style="normal">3.0 calls/case</text><path d="M 194 182 h 191.0 a 4 4 0 0 1 4 4 v 14 a 4 4 0 0 1 -4 4 h -191.0 Z" fill="#86b6ef"/><text x="397.0" y="197.5" font-family="-apple-system, BlinkMacSystemFont, 'Segoe UI', Helvetica, Arial, sans-serif" font-size="12" fill="#1f2328" font-weight="600" text-anchor="start" font-style="normal">78.0%</text><text x="184" y="248" font-family="-apple-system, BlinkMacSystemFont, 'Segoe UI', Helvetica, Arial, sans-serif" font-size="12" fill="#1f2328" font-weight="700" text-anchor="end" font-style="normal">CascadeMind</text><text x="184" y="264" font-family="-apple-system, BlinkMacSystemFont, 'Segoe UI', Helvetica, Arial, sans-serif" font-size="10.5" fill="#8b949e" font-weight="normal" text-anchor="end" font-style="normal">1.78 calls/case</text><path d="M 194 238 h 198.5 a 4 4 0 0 1 4 4 v 14 a 4 4 0 0 1 -4 4 h -198.5 Z" fill="#2a78d6"/><text x="404.5" y="253.5" font-family="-apple-system, BlinkMacSystemFont, 'Segoe UI', Helvetica, Arial, sans-serif" font-size="12" fill="#1f2328" font-weight="700" text-anchor="start" font-style="normal">81.0%</text><line x1="194" y1="64" x2="194" y2="276" stroke="#c3c2b7" stroke-width="1.2"/><text x="500" y="28" font-family="-apple-system, BlinkMacSystemFont, 'Segoe UI', Helvetica, Arial, sans-serif" font-size="14.5" fill="#1f2328" font-weight="700" text-anchor="start" font-style="normal">Accuracy tracks vote consensus</text><text x="500" y="48" font-family="-apple-system, BlinkMacSystemFont, 'Segoe UI', Helvetica, Arial, sans-serif" font-size="11.5" fill="#8b949e" font-weight="normal" text-anchor="start" font-style="normal">decision pathways, cascade diagnostic subset (n = 100)</text><line x1="670.0" y1="70" x2="670.0" y2="238" stroke="#e1e0d9" stroke-width="1"/><text x="670.0" y="258" font-family="-apple-system, BlinkMacSystemFont, 'Segoe UI', Helvetica, Arial, sans-serif" font-size="10.5" fill="#8b949e" font-weight="normal" text-anchor="middle" font-style="normal">0</text><line x1="726.5" y1="70" x2="726.5" y2="238" stroke="#e1e0d9" stroke-width="1"/><text x="726.5" y="258" font-family="-apple-system, BlinkMacSystemFont, 'Segoe UI', Helvetica, Arial, sans-serif" font-size="10.5" fill="#8b949e" font-weight="normal" text-anchor="middle" font-style="normal">25</text><line x1="783.0" y1="70" x2="783.0" y2="238" stroke="#e1e0d9" stroke-width="1"/><text x="783.0" y="258" font-family="-apple-system, BlinkMacSystemFont, 'Segoe UI', Helvetica, Arial, sans-serif" font-size="10.5" fill="#8b949e" font-weight="normal" text-anchor="middle" font-style="normal">50</text><line x1="839.5" y1="70" x2="839.5" y2="238" stroke="#e1e0d9" stroke-width="1"/><text x="839.5" y="258" font-family="-apple-system, BlinkMacSystemFont, 'Segoe UI', Helvetica, Arial, sans-serif" font-size="10.5" fill="#8b949e" font-weight="normal" text-anchor="middle" font-style="normal">75</text><line x1="896.0" y1="70" x2="896.0" y2="238" stroke="#e1e0d9" stroke-width="1"/><text x="896.0" y="258" font-family="-apple-system, BlinkMacSystemFont, 'Segoe UI', Helvetica, Arial, sans-serif" font-size="10.5" fill="#8b949e" font-weight="normal" text-anchor="middle" font-style="normal">100</text><text x="660" y="86" font-family="-apple-system, BlinkMacSystemFont, 'Segoe UI', Helvetica, Arial, sans-serif" font-size="12" fill="#1f2328" font-weight="600" text-anchor="end" font-style="normal">Supermajority (≥ 7/8)</text><text x="660" y="102" font-family="-apple-system, BlinkMacSystemFont, 'Segoe UI', Helvetica, Arial, sans-serif" font-size="10.5" fill="#8b949e" font-weight="normal" text-anchor="end" font-style="normal">74 of 100 cases</text><path d="M 670 76 h 188.1 a 4 4 0 0 1 4 4 v 14 a 4 4 0 0 1 -4 4 h -188.1 Z" fill="#2a78d6"/><text x="870.1" y="91.5" font-family="-apple-system, BlinkMacSystemFont, 'Segoe UI', Helvetica, Arial, sans-serif" font-size="12" fill="#1f2328" font-weight="700" text-anchor="start" font-style="normal">85%</text><text x="660" y="148" font-family="-apple-system, BlinkMacSystemFont, 'Segoe UI', Helvetica, Arial, sans-serif" font-size="12" fill="#1f2328" font-weight="600" text-anchor="end" font-style="normal">Escalated majority</text><text x="660" y="164" font-family="-apple-system, BlinkMacSystemFont, 'Segoe UI', Helvetica, Arial, sans-serif" font-size="10.5" fill="#8b949e" font-weight="normal" text-anchor="end" font-style="normal">21 of 100 cases</text><path d="M 670 138 h 147.42 a 4 4 0 0 1 4 4 v 14 a 4 4 0 0 1 -4 4 h -147.42 Z" fill="#eda100"/><text x="829.42" y="153.5" font-family="-apple-system, BlinkMacSystemFont, 'Segoe UI', Helvetica, Arial, sans-serif" font-size="12" fill="#1f2328" font-weight="700" text-anchor="start" font-style="normal">67%</text><text x="660" y="210" font-family="-apple-system, BlinkMacSystemFont, 'Segoe UI', Helvetica, Arial, sans-serif" font-size="12" fill="#1f2328" font-weight="600" text-anchor="end" font-style="normal">Perfect tie → symbolic</text><text x="660" y="226" font-family="-apple-system, BlinkMacSystemFont, 'Segoe UI', Helvetica, Arial, sans-serif" font-size="10.5" fill="#8b949e" font-weight="normal" text-anchor="end" font-style="normal">5 of 100 cases</text><path d="M 670 200 h 133.86 a 4 4 0 0 1 4 4 v 14 a 4 4 0 0 1 -4 4 h -133.86 Z" fill="#4a3aa7"/><text x="815.86" y="215.5" font-family="-apple-system, BlinkMacSystemFont, 'Segoe UI', Helvetica, Arial, sans-serif" font-size="12" fill="#1f2328" font-weight="700" text-anchor="start" font-style="normal">61%</text><line x1="670" y1="70" x2="670" y2="238" stroke="#c3c2b7" stroke-width="1.2"/></svg>